<?xml version="1.0" encoding="UTF-8" standalone="no"?>
<!-- Created with Inkscape (http://www.inkscape.org/) -->

<svg
   xmlns:dc="http://purl.org/dc/elements/1.1/"
   xmlns:cc="http://creativecommons.org/ns#"
   xmlns:rdf="http://www.w3.org/1999/02/22-rdf-syntax-ns#"
   xmlns:svg="http://www.w3.org/2000/svg"
   xmlns="http://www.w3.org/2000/svg"
   xmlns:sodipodi="http://sodipodi.sourceforge.net/DTD/sodipodi-0.dtd"
   xmlns:inkscape="http://www.inkscape.org/namespaces/inkscape"
   width="256"
   height="256"
   id="svg1901"
   sodipodi:version="0.32"
   inkscape:version="0.48.2 r9819"
   sodipodi:docname="logo.svg"
   version="1.1"
   inkscape:export-filename="/Users/juhovepsalainen/src/github/js/cdnperf/media/favicon.png"
   inkscape:export-xdpi="90"
   inkscape:export-ydpi="90">
  <defs
     id="defs1903" />
  <sodipodi:namedview
     id="base"
     pagecolor="#ffffff"
     bordercolor="#666666"
     borderopacity="1.0"
     inkscape:pageopacity="0.0"
     inkscape:pageshadow="2"
     inkscape:zoom="1.092"
     inkscape:cx="-40.044539"
     inkscape:cy="181.77821"
     inkscape:document-units="px"
     inkscape:current-layer="layer1"
     inkscape:window-width="1440"
     inkscape:window-height="852"
     inkscape:window-x="0"
     inkscape:window-y="0"
     showgrid="false"
     showguides="true"
     inkscape:guide-bbox="true"
     inkscape:window-maximized="1" />
  <metadata
     id="metadata1906">
    <rdf:RDF>
      <cc:Work
         rdf:about="">
        <dc:format>image/svg+xml</dc:format>
        <dc:type
           rdf:resource="http://purl.org/dc/dcmitype/StillImage" />
        <dc:title></dc:title>
      </cc:Work>
    </rdf:RDF>
  </metadata>
  <g
     inkscape:label="Taso 1"
     inkscape:groupmode="layer"
     id="layer1"
     transform="translate(0,-796.36218)">
    <g
       transform="matrix(2.827155,0,0,3.3890213,-877.45719,290.81891)"
       id="g5994"
       style="fill:#e7b04f;fill-opacity:1">
      <path
         style="fill:#e7b04f;fill-opacity:1;fill-rule:nonzero;stroke:none"
         d="m 350.61653,168.0625 -1.3125,6.40625 9.28125,0 1.3125,-6.40625 -9.28125,0 z"
         id="path5996"
         inkscape:connector-curvature="0" />
      <path
         inkscape:connector-curvature="0"
         id="path5998"
         d="m 347.70263,180.76854 -1.3125,6.40625 9.28125,0 1.3125,-6.40625 -9.28125,0 z"
         style="fill:#e7b04f;fill-opacity:1;fill-rule:nonzero;stroke:none" />
      <path
         style="fill:#e7b04f;fill-opacity:1;fill-rule:nonzero;stroke:none"
         d="m 345.59814,193.36012 -1.3125,6.40625 9.28125,0 1.3125,-6.40625 -9.28125,0 z"
         id="path6000"
         inkscape:connector-curvature="0" />
      <path
         inkscape:connector-curvature="0"
         style="fill:#e7b04f;fill-opacity:1;fill-rule:nonzero;stroke:none"
         d="m 325.3125,168.09375 -7.5,38.0625 25.125,0 1.3125,-6.375 -9.1875,0 1.3125,-6.40625 2.46875,0 0,-0.0625 6.6875,0 5.09375,-25.21875 -25.3125,0 z"
         id="path6002" />
      <path
         inkscape:connector-curvature="0"
         id="path6004"
         d="m 358.16671,174.35829 -1.3125,6.40625 9.28125,0 1.3125,-6.40625 -9.28125,0 z"
         style="fill:#e7b04f;fill-opacity:1;fill-rule:nonzero;stroke:none" />
      <path
         style="fill:#e7b04f;fill-opacity:1;fill-rule:nonzero;stroke:none"
         d="m 353.86768,199.88484 -1.3125,6.40625 9.28125,0 1.3125,-6.40625 -9.28125,0 z"
         id="path6006"
         inkscape:connector-curvature="0" />
      <path
         style="fill:#e7b04f;fill-opacity:1;fill-rule:nonzero;stroke:none"
         d="m 366.40847,180.88302 -1.3125,6.40625 9.28125,0 1.3125,-6.40625 -9.28125,0 z"
         id="path6008"
         inkscape:connector-curvature="0" />
      <path
         inkscape:connector-curvature="0"
         id="path6010"
         d="m 364.51329,193.24565 -1.3125,6.40625 9.28125,0 1.3125,-6.40625 -9.28125,0 z"
         style="fill:#e7b04f;fill-opacity:1;fill-rule:nonzero;stroke:none" />
      <path
         inkscape:connector-curvature="0"
         id="path6012"
         d="m 377.16854,174.58723 -1.3125,6.40625 9.28125,0 1.3125,-6.40625 -9.28125,0 z"
         style="fill:#e7b04f;fill-opacity:1;fill-rule:nonzero;stroke:none" />
      <path
         style="fill:#e7b04f;fill-opacity:1;fill-rule:nonzero;stroke:none"
         d="m 385.4103,187.17881 -1.3125,6.40625 9.28125,0 1.3125,-6.40625 -9.28125,0 z"
         id="path6014"
         inkscape:connector-curvature="0" />
    </g>
  </g>
</svg>
