<?xml version="1.0" encoding="utf-8"?>
<!-- Generator: Adobe Illustrator 16.0.0, SVG Export Plug-In . SVG Version: 6.00 Build 0)  -->
<!DOCTYPE svg PUBLIC "-//W3C//DTD SVG 1.1//EN" "http://www.w3.org/Graphics/SVG/1.1/DTD/svg11.dtd">
<svg version="1.1" id="Layer_1" xmlns="http://www.w3.org/2000/svg" xmlns:xlink="http://www.w3.org/1999/xlink" x="0px" y="0px"
	 width="16px" height="16px" viewBox="0 0 16 16" enable-background="new 0 0 16 16" xml:space="preserve">
<path d="M12.988,7.177l-3.904,8.47l-0.003-0.002C8.969,15.855,8.751,16,8.498,16c-0.367,0-0.665-0.301-0.665-0.672v-4.617H3.726
	c-0.677,0-1.226-0.555-1.226-1.238c0-0.238,0.069-0.457,0.184-0.645L2.678,8.823l3.904-8.469l0.003,0.002
	C6.697,0.145,6.916,0,7.168,0c0.368,0,0.665,0.301,0.665,0.671v4.617h4.107c0.677,0,1.226,0.555,1.226,1.239
	c0,0.237-0.069,0.457-0.184,0.645L12.988,7.177z"/>
</svg>
