<?xml version="1.0" encoding="utf-8"?>
<!-- Generator: Adobe Illustrator 16.0.0, SVG Export Plug-In . SVG Version: 6.00 Build 0)  -->
<!DOCTYPE svg PUBLIC "-//W3C//DTD SVG 1.1//EN" "http://www.w3.org/Graphics/SVG/1.1/DTD/svg11.dtd">
<svg version="1.1" id="Layer_1" xmlns="http://www.w3.org/2000/svg" xmlns:xlink="http://www.w3.org/1999/xlink" x="0px" y="0px"
	 width="50px" height="50px" viewBox="0 0 50 50" enable-background="new 0 0 50 50" xml:space="preserve">
<path fill="#333333" d="M25.001,0c-13.808,0-25,11.193-25,25c0,13.807,11.192,25,25,25S50,38.807,50,25C50,11.193,38.809,0,25.001,0
	z M32.734,23.765l-5.857,12.704l-0.004-0.002C26.703,36.783,26.377,37,25.999,37c-0.551,0-0.998-0.451-0.998-1.008v-6.926H18.84
	c-1.015,0-1.839-0.832-1.839-1.857c0-0.356,0.104-0.686,0.275-0.967l-0.009-0.008l5.856-12.703l0.005,0.003
	C23.298,13.218,23.625,13,24.004,13c0.552,0,0.997,0.451,0.997,1.007v6.926h6.161c1.016,0,1.838,0.833,1.838,1.859
	c0,0.355-0.104,0.685-0.275,0.967L32.734,23.765z"/>
</svg>
